<?xml version="1.0" standalone="no"?>
<!DOCTYPE svg PUBLIC "-//W3C//DTD SVG 20010904//EN"
 "http://www.w3.org/TR/2001/REC-SVG-20010904/DTD/svg10.dtd">
<svg version="1.0" xmlns="http://www.w3.org/2000/svg"
 width="1002.000000pt" height="965.000000pt" viewBox="0 0 1002.000000 965.000000"
 preserveAspectRatio="xMidYMid meet">
<metadata>
Created by potrace 1.16, written by Peter Selinger 2001-2019
</metadata>
<g transform="translate(0.000000,965.000000) scale(0.100000,-0.100000)"
fill="#000000" stroke="none">
<path d="M5096 9610 c-981 -4 -1226 -8 -1214 -17 11 -10 150 -13 589 -16 316
-1 51 -3 -589 -5 -734 -1 -1169 -6 -1180 -12 -9 -5 -62 -26 -117 -46 -210 -77
-419 -186 -665 -349 -798 -528 -1471 -1409 -1777 -2325 -30 -91 -60 -168 -67
-172 -8 -5 -14 -137 -21 -445 l-11 -438 104 -170 104 -170 -7 -695 -7 -694
-112 -201 -111 -200 8 -490 c8 -482 8 -491 34 -585 46 -173 132 -371 248 -575
468 -824 1372 -1751 1867 -1914 37 -13 70 -27 73 -32 4 -5 1098 -9 2781 -9
2423 0 2775 2 2780 15 3 8 49 37 102 66 299 158 699 475 1073 848 359 359 598
662 771 976 92 167 172 371 193 490 4 22 14 51 22 64 14 21 14 100 8 639 -7
567 -9 615 -25 619 -9 2 -49 61 -88 130 l-72 125 0 688 0 689 94 203 95 204
11 463 c7 308 8 467 1 474 -19 19 -41 -1 -41 -36 0 -19 -5 -227 -11 -462 l-10
-427 -95 -205 -94 -204 0 -700 0 -700 89 -154 89 -154 7 -571 c5 -401 4 -578
-3 -593 -6 -12 -21 -62 -33 -112 -99 -410 -422 -891 -953 -1420 -381 -380
-753 -671 -1090 -852 l-99 -53 -2738 0 c-1559 0 -2740 4 -2743 9 -3 5 -27 14
-53 20 -235 60 -692 415 -1069 832 -556 616 -913 1175 -1039 1629 -22 82 -23
103 -30 573 l-7 487 92 168 c51 92 101 176 110 187 17 18 19 74 25 737 l7 717
-103 168 -104 168 8 400 c4 220 12 409 17 420 5 11 36 101 69 200 99 303 223
571 399 865 501 837 1295 1533 2057 1803 l100 35 2290 7 2290 7 125 -57 c344
-156 684 -377 1060 -689 174 -144 536 -503 682 -676 360 -428 600 -844 713
-1235 22 -79 36 -111 48 -113 29 -6 30 24 3 118 -95 330 -281 684 -545 1035
-133 177 -271 335 -463 531 -103 105 -185 194 -180 198 4 4 2 6 -4 4 -18 -5
-75 41 -68 55 4 7 4 9 0 5 -4 -3 -67 43 -138 104 -335 282 -682 513 -1013 675
-60 30 -102 52 -92 49 11 -4 31 -8 45 -11 20 -4 18 -2 -8 9 -19 8 -44 15 -55
15 -11 1 -33 8 -49 16 -25 13 -113 15 -638 15 -408 0 -607 3 -603 10 4 6 124
10 332 10 180 0 324 3 320 6 -8 9 -347 10 -1701 4z"/>
<path d="M1715 8635 c-19 -16 -37 -22 -51 -19 -12 3 -25 0 -29 -6 -5 -9 -1
-10 16 -5 14 5 -47 -63 -147 -161 -216 -214 -364 -371 -415 -441 -43 -58 -94
-89 -116 -71 -17 14 -16 -3 1 -27 11 -16 11 -23 -3 -47 -9 -15 -19 -28 -23
-28 -15 0 -8 -26 12 -48 23 -24 74 -29 112 -11 13 6 55 52 93 101 130 167 344
394 510 541 125 110 135 122 135 163 0 41 -25 84 -49 84 -9 -1 -29 -12 -46
-25z"/>
<path d="M8244 8635 c-25 -38 -13 -103 23 -134 191 -160 430 -407 596 -616 44
-55 89 -105 101 -112 35 -21 90 -16 114 10 l21 23 -23 39 c-18 29 -22 45 -16
61 7 18 5 23 -11 27 -16 4 -19 2 -15 -10 4 -9 -11 0 -33 18 -21 19 -41 39 -42
46 -11 36 -410 454 -538 563 -35 30 -69 60 -75 65 -22 21 -61 45 -73 45 -7 0
-20 -11 -29 -25z"/>
<path d="M1075 1601 c-11 -5 -29 -18 -39 -30 -17 -19 -18 -24 -6 -46 7 -14
162 -175 344 -358 182 -183 342 -346 356 -362 14 -17 44 -45 68 -64 38 -30 46
-32 68 -22 33 15 56 70 45 107 -10 35 -740 766 -774 776 -30 8 -39 8 -62 -1z"/>
<path d="M8897 1601 c-28 -11 -758 -741 -768 -769 -13 -34 5 -86 37 -107 23
-15 28 -15 48 -1 13 8 29 21 37 29 8 8 184 186 392 395 207 209 377 387 377
395 0 8 -14 27 -31 41 -30 26 -58 31 -92 17z"/>
</g>
</svg>
