<?xml version="1.0" standalone="no"?>
<!DOCTYPE svg PUBLIC "-//W3C//DTD SVG 20010904//EN"
 "http://www.w3.org/TR/2001/REC-SVG-20010904/DTD/svg10.dtd">
<svg version="1.0" xmlns="http://www.w3.org/2000/svg"
 width="658.000000pt" height="571.000000pt" viewBox="0 0 658.000000 571.000000"
 preserveAspectRatio="xMidYMid meet">
<metadata>
Created by potrace 1.16, written by Peter Selinger 2001-2019
</metadata>
<g transform="translate(0.000000,571.000000) scale(0.100000,-0.100000)"
fill="#000000" stroke="none">
<path d="M1925 5274 c-207 -31 -607 -186 -850 -328 -179 -106 -288 -240 -316
-391 -16 -81 -5 -479 17 -643 10 -70 19 -122 21 -115 2 6 -3 60 -11 119 -8 60
-14 110 -12 111 1 2 17 -19 35 -46 35 -55 67 -83 251 -223 69 -52 393 -308
720 -569 1570 -1253 2106 -1666 2268 -1746 51 -25 95 -43 98 -41 3 3 -14 13
-38 22 -156 62 -599 399 -2238 1706 -404 322 -789 627 -855 677 -131 98 -192
159 -224 221 -17 34 -22 67 -27 199 l-6 158 30 -45 c43 -66 58 -78 632 -537
1387 -1108 2169 -1710 2497 -1923 90 -59 278 -148 289 -137 2 2 -33 18 -79 36
-45 19 -109 50 -142 69 -261 154 -1157 842 -2594 1992 -655 524 -625 492 -619
656 3 90 7 107 37 170 73 150 228 264 556 409 290 129 533 195 713 195 156 0
331 -45 493 -128 353 -180 2606 -1621 3029 -1938 168 -125 313 -265 358 -344
45 -80 80 -194 87 -286 7 -75 5 -84 -20 -135 -59 -117 -108 -172 -221 -249
-269 -183 -670 -402 -840 -457 -46 -15 -82 -29 -79 -31 2 -2 40 8 85 23 113
38 384 174 585 295 328 198 373 235 457 370 l39 65 -6 -110 c-12 -219 -39
-293 -146 -405 l-59 -62 -31 26 c-17 14 -36 26 -42 26 -7 -1 0 -7 15 -16 25
-13 58 -60 58 -82 0 -5 -18 -12 -41 -15 -60 -8 -140 -51 -250 -134 -145 -109
-218 -201 -219 -275 0 -19 -6 -28 -22 -32 -13 -3 6 -3 42 -2 81 4 140 32 268
128 191 142 256 232 234 320 l-11 42 53 56 c29 30 65 74 80 97 16 24 32 41 36
38 20 -12 50 250 50 440 0 140 -19 229 -71 335 -84 170 -272 326 -874 725
-726 481 -1995 1288 -2398 1523 -153 89 -238 127 -373 168 -76 23 -110 27
-239 29 -82 2 -163 1 -180 -1z m3915 -3496 c0 -67 -83 -160 -255 -283 -94 -67
-156 -100 -207 -109 -36 -7 -38 -6 -38 20 0 70 81 170 224 277 113 84 194 125
249 126 24 1 27 -3 27 -31z"/>
<path d="M2734 3876 c-52 -23 -76 -73 -58 -121 18 -45 135 -60 203 -26 42 22
67 67 56 101 -17 52 -128 78 -201 46z m156 -11 c55 -28 49 -88 -13 -125 -45
-28 -135 -27 -171 1 -28 22 -35 64 -13 91 35 45 140 63 197 33z"/>
<path d="M831 3581 c-2 -29 51 -101 116 -160 39 -35 61 -61 51 -61 -36 0 -199
-54 -284 -94 -114 -54 -165 -100 -206 -185 l-33 -66 2 -185 c2 -165 18 -358
22 -261 l1 34 77 -74 c79 -76 1380 -1252 1463 -1322 47 -40 153 -97 179 -97 9
0 -9 11 -40 24 -81 33 -93 43 -429 346 -993 894 -1228 1111 -1243 1142 -10 21
-18 78 -22 153 l-7 120 24 -37 c26 -42 47 -61 528 -488 537 -478 948 -836
1020 -891 36 -27 90 -59 120 -70 69 -27 181 -35 262 -19 96 18 256 84 355 146
111 70 140 97 168 157 l23 49 7 -84 c3 -45 5 -154 3 -240 -2 -92 0 -148 5
-135 5 12 7 119 5 238 l-4 216 185 -151 c277 -226 626 -505 711 -568 73 -54
189 -118 240 -132 14 -4 -16 13 -65 37 -116 56 -202 121 -825 625 -245 199
-260 213 -260 251 0 41 -36 139 -65 177 -87 114 -1506 1273 -1646 1345 -52 26
-144 49 -198 49 -36 0 -53 7 -98 41 -53 42 -114 115 -132 160 -5 13 -10 18
-10 10z m409 -262 c107 -50 615 -452 1305 -1033 316 -265 355 -303 387 -372
64 -137 41 -235 -76 -321 -84 -62 -285 -159 -380 -183 -156 -39 -293 -18 -403
64 -71 53 -312 261 -849 736 -583 517 -701 626 -723 668 -37 73 8 223 89 296
62 56 193 117 333 156 104 29 241 24 317 -11z"/>
<path d="M520 2448 c0 -39 6 -45 795 -773 721 -666 819 -750 895 -770 14 -3
-4 10 -40 30 -72 39 -151 107 -590 509 -659 605 -1016 940 -1037 975 -13 20
-23 33 -23 29z"/>
<path d="M2951 1390 c-23 -32 -41 -32 -41 1 0 18 -5 16 -42 -14 -61 -49 -184
-128 -246 -156 -44 -21 -52 -29 -52 -52 0 -15 -6 -30 -12 -32 -7 -3 -4 -6 6
-6 73 -3 446 253 415 284 -3 3 -15 -9 -28 -25z"/>
</g>
</svg>
