<?xml version="1.0" standalone="no"?>
<!DOCTYPE svg PUBLIC "-//W3C//DTD SVG 20010904//EN"
 "http://www.w3.org/TR/2001/REC-SVG-20010904/DTD/svg10.dtd">
<svg version="1.0" xmlns="http://www.w3.org/2000/svg"
 width="545.000000pt" height="746.000000pt" viewBox="0 0 545.000000 746.000000"
 preserveAspectRatio="xMidYMid meet">
<metadata>
Created by potrace 1.16, written by Peter Selinger 2001-2019
</metadata>
<g transform="translate(0.000000,746.000000) scale(0.100000,-0.100000)"
fill="#000000" stroke="none">
<path d="M230 7150 c0 -17 8 -20 85 -22 l85 -3 -95 -119 c-61 -76 -95 -127
-95 -143 l0 -24 127 3 c111 3 128 5 131 20 3 15 -9 18 -102 20 l-105 3 99 123
c55 68 100 132 100 143 0 18 -8 19 -115 19 -108 0 -115 -1 -115 -20z"/>
<path d="M690 7164 c0 -11 80 -307 86 -315 3 -5 13 -9 23 -9 15 0 25 26 56
140 21 77 41 138 43 135 3 -2 22 -64 42 -137 31 -110 40 -134 57 -136 17 -3
23 10 46 95 15 54 36 128 46 166 l20 67 -23 0 c-20 0 -24 -10 -45 -97 -13 -54
-27 -116 -33 -138 l-10 -40 -29 110 c-16 61 -32 122 -35 138 -5 21 -12 27 -34
27 -27 0 -28 -4 -66 -137 l-39 -137 -27 115 c-15 63 -30 124 -33 137 -3 13
-13 22 -25 22 -11 0 -20 -2 -20 -6z"/>
<path d="M2072 7008 l3 -163 55 -3 c126 -7 178 16 187 85 5 36 2 45 -21 68
-25 25 -26 29 -12 44 22 24 20 74 -3 102 -17 22 -29 24 -115 27 l-97 4 3 -164z
m193 -42 c14 -20 14 -29 4 -48 -18 -33 -28 -38 -91 -38 l-58 0 0 55 0 55 65 0
c57 0 66 -3 80 -24z"/>
<path d="M2702 7148 c-7 -7 -12 -25 -12 -40 0 -18 -5 -28 -15 -28 -8 0 -15 -7
-15 -15 0 -8 7 -15 15 -15 12 0 15 -17 15 -93 0 -102 7 -117 52 -117 21 0 28
5 28 20 0 13 -7 20 -20 20 -18 0 -20 7 -20 85 0 78 2 85 20 85 11 0 20 7 20
15 0 8 -9 15 -20 15 -17 0 -20 7 -20 40 0 41 -7 49 -28 28z"/>
<path d="M2858 7149 c-11 -6 -18 -22 -18 -39 0 -20 -5 -30 -15 -30 -8 0 -15
-7 -15 -15 0 -8 7 -15 15 -15 12 0 15 -16 15 -88 0 -96 12 -122 58 -122 37 0
37 29 0 43 -15 5 -18 19 -18 87 0 73 2 80 20 80 11 0 20 7 20 15 0 8 -9 15
-19 15 -16 0 -20 8 -23 39 -3 35 -5 38 -20 30z"/>
<path d="M1218 7081 c-34 -7 -68 -36 -68 -56 0 -22 33 -18 48 5 22 36 102 24
102 -15 0 -24 -2 -25 -92 -40 -63 -10 -89 -74 -48 -115 24 -24 79 -26 120 -5
25 13 29 13 34 0 3 -8 12 -15 21 -15 12 0 14 14 9 93 -8 132 -8 135 -52 146
-20 6 -39 10 -42 10 -3 -1 -17 -4 -32 -8z"/>
<path d="M1750 7079 c-39 -16 -59 -39 -70 -81 -14 -50 2 -110 37 -137 48 -39
135 -23 163 30 18 32 -16 36 -45 5 -14 -15 -35 -26 -50 -26 -30 0 -65 32 -65
60 0 18 7 20 85 20 83 0 85 0 85 24 0 77 -74 132 -140 105z"/>
<path d="M3055 7082 c-61 -14 -92 -71 -80 -147 9 -65 52 -99 118 -92 68 6 90
30 95 105 2 34 -1 68 -7 81 -21 38 -82 64 -126 53z m75 -52 c14 -14 20 -33 20
-67 0 -79 -57 -118 -111 -74 -31 25 -34 108 -5 140 24 27 70 27 96 1z"/>
<path d="M3355 7083 c-11 -3 -26 -10 -34 -17 -11 -8 -15 -8 -18 2 -3 6 -11 12
-19 12 -11 0 -14 -23 -14 -121 0 -109 2 -120 18 -117 14 3 17 17 20 88 3 95
17 120 63 120 40 0 49 -24 49 -124 0 -79 2 -86 20 -86 19 0 20 7 20 100 0 87
-3 103 -20 120 -11 11 -24 20 -29 20 -5 0 -15 2 -23 4 -7 2 -22 1 -33 -1z"/>
<path d="M1410 7078 c0 -2 20 -55 44 -118 44 -115 65 -140 85 -103 12 24 81
205 81 216 0 4 -8 7 -18 7 -13 0 -25 -21 -46 -82 -16 -46 -32 -86 -36 -91 -3
-4 -20 32 -37 80 -24 70 -34 89 -52 91 -11 2 -21 2 -21 0z"/>
<path d="M2402 6974 c3 -91 6 -108 22 -120 26 -19 86 -18 114 2 20 14 22 14
22 0 0 -9 7 -16 15 -16 13 0 15 20 15 120 0 113 -1 120 -20 120 -18 0 -20 -7
-20 -85 0 -72 -3 -88 -20 -105 -24 -24 -53 -26 -74 -4 -12 12 -16 37 -16 105
0 84 -1 89 -21 89 -20 0 -21 -4 -17 -106z"/>
<path d="M3510 6950 c0 -7 185 -10 535 -10 l535 0 0 -630 0 -630 -113 0 c-101
0 -116 -2 -132 -20 -17 -19 -31 -20 -258 -20 -230 0 -242 1 -263 21 -20 19
-33 20 -191 20 -183 -1 -245 -11 -335 -57 -71 -36 -169 -132 -207 -203 -65
-123 -61 52 -61 -2416 0 -2464 -5 -2290 60 -2420 43 -85 135 -201 205 -258 80
-65 202 -122 300 -142 70 -14 154 -15 615 -12 476 3 542 5 595 21 193 57 329
179 384 343 l21 63 -2 2278 -3 2278 -37 75 c-20 40 -46 99 -57 130 -68 182
-263 319 -453 319 l-48 0 0 640 0 640 -545 0 c-357 0 -545 -3 -545 -10z m298
-1303 c23 -21 31 -22 267 -22 239 0 244 0 267 23 22 20 34 22 131 22 l107 0 0
-25 c0 -25 0 -25 -97 -25 -81 0 -103 -4 -128 -20 -28 -19 -47 -20 -285 -20
-241 0 -257 1 -289 21 -32 20 -46 21 -200 17 -141 -4 -174 -8 -223 -27 -109
-42 -205 -138 -250 -248 l-23 -58 -3 -2240 c-3 -2462 -6 -2320 57 -2430 59
-104 173 -183 294 -205 35 -7 278 -10 669 -8 611 3 613 3 669 26 126 50 225
153 266 276 17 48 18 182 21 2261 2 1501 -1 2232 -8 2280 -27 178 -149 315
-323 361 -29 8 -69 14 -89 14 -31 0 -38 4 -38 20 0 30 22 34 103 21 96 -15
201 -68 269 -134 61 -60 121 -167 137 -245 8 -38 11 -689 11 -2285 0 -1974 -2
-2240 -15 -2292 -37 -139 -130 -252 -263 -318 l-85 -42 -651 -3 c-424 -2 -667
1 -699 8 -123 26 -265 137 -320 250 -60 122 -57 -5 -57 2401 0 1544 3 2223 11
2265 34 187 201 357 384 392 28 5 120 10 205 10 146 1 156 -1 178 -21z m-23
-67 c36 -18 59 -20 280 -20 217 0 244 2 284 20 33 15 65 20 137 20 l94 0 0
-364 0 -365 -52 -24 c-72 -32 -108 -66 -143 -129 -26 -46 -30 -63 -30 -133 0
-67 5 -88 27 -131 34 -65 95 -118 167 -145 78 -29 195 -23 267 14 57 29 119
92 140 144 86 204 -45 398 -278 411 l-78 5 0 358 0 359 55 0 c153 0 316 -128
365 -287 20 -64 20 -87 20 -2302 0 -2449 4 -2284 -56 -2387 -35 -60 -125 -141
-191 -172 l-58 -27 -670 0 -670 0 -57 27 c-104 48 -185 141 -222 253 -15 47
-16 237 -14 2325 l3 2275 27 55 c52 105 137 183 241 221 42 15 82 18 212 19
141 0 165 -2 200 -20z m1390 -436 c13 -51 15 -333 15 -2281 0 -1589 -3 -2237
-11 -2275 -28 -134 -134 -265 -270 -334 -129 -65 -136 -65 -772 -62 l-572 3
-67 26 c-90 35 -164 81 -235 145 l-58 53 70 -35 c125 -62 144 -64 800 -64 470
0 604 3 657 14 187 40 326 170 385 361 17 57 18 154 18 2307 0 2351 -1 2299
40 2142z m-355 -315 c101 -54 150 -133 150 -241 -1 -109 -60 -200 -165 -256
-43 -23 -62 -27 -140 -27 -81 0 -95 3 -144 30 -149 82 -200 240 -123 378 30
54 98 114 152 134 47 18 39 -10 -10 -32 -118 -53 -181 -187 -145 -310 34 -119
162 -202 295 -192 108 7 189 59 238 152 35 66 37 170 5 230 -51 95 -143 148
-260 149 -69 1 -89 7 -60 20 6 3 42 4 80 1 51 -3 81 -12 127 -36z m-12 -30
c171 -85 186 -304 28 -424 -101 -77 -252 -70 -351 17 -147 130 -101 355 88
425 18 6 64 12 103 12 60 1 80 -4 132 -30z"/>
<path d="M3637 4783 c-5 -4 -103 -10 -218 -13 -274 -7 -254 12 -254 -231 0
-178 0 -181 24 -200 22 -18 45 -19 451 -19 406 0 429 1 451 19 23 19 24 24 27
194 3 173 3 175 -21 203 -25 29 -25 29 -184 36 -87 4 -183 10 -213 14 -30 3
-59 2 -63 -3z m156 -36 l37 -21 0 -123 c0 -78 -4 -123 -10 -123 -6 0 -24 10
-41 22 -23 17 -44 22 -92 23 -34 0 -77 -3 -94 -7 l-33 -7 0 118 0 118 43 11
c23 6 51 13 62 15 33 7 88 -4 128 -26z m289 -14 c16 -14 18 -34 18 -188 0
-176 -4 -195 -42 -208 -19 -7 -25 8 -8 18 6 4 10 68 10 161 0 194 0 194 -125
194 -74 0 -86 2 -95 20 -10 19 -8 20 106 20 95 0 121 -3 136 -17z m-756 -94
c-3 -34 -6 -118 -6 -185 l0 -124 -44 0 c-29 0 -52 7 -70 21 l-26 20 0 149 c0
177 1 180 92 180 l61 0 -7 -61z m110 -116 c-2 -98 -5 -182 -5 -186 -1 -4 -22
-7 -48 -5 l-48 3 0 48 c1 26 2 108 3 182 l2 135 50 0 49 0 -3 -177z m604 -152
c0 -6 -10 -17 -22 -25 -19 -14 -65 -16 -295 -16 l-273 0 0 25 0 25 295 0 c178
0 295 -4 295 -9z"/>
<path d="M3480 3879 c-25 -4 -85 -8 -135 -8 l-90 -1 2 -1457 c1 -802 5 -1527
9 -1611 l6 -152 54 0 54 0 0 -39 0 -39 103 -4 c56 -1 362 -1 680 1 l577 3 0
39 0 39 66 0 67 0 -7 1092 c-3 601 -9 1324 -12 1606 l-7 512 -76 0 c-42 1
-103 7 -136 15 -78 19 -203 19 -302 0 -108 -21 -471 -21 -568 0 -74 16 -210
18 -285 4z m350 -40 l65 -24 6 -525 c4 -289 9 -981 13 -1537 l7 -1013 -281 0
-280 0 -1 198 c0 108 -2 370 -5 582 -22 1941 -24 2285 -9 2299 54 55 358 67
485 20z m860 7 c24 -9 54 -23 66 -31 l21 -14 7 -1483 c4 -816 9 -1504 12
-1531 l6 -47 -280 0 -280 0 -6 113 c-5 99 -27 2447 -26 2818 l0 147 43 17 c71
29 117 34 257 31 96 -2 148 -8 180 -20z m-1357 -13 c-20 -18 -20 -29 -7 -1233
7 -668 13 -1362 13 -1542 l1 -328 95 0 c90 0 95 -1 86 -18 -5 -10 -28 -24 -50
-31 -51 -15 -70 -45 -45 -72 16 -18 16 -19 -4 -19 -19 0 -22 6 -22 40 l0 40
-60 0 -60 0 0 923 c0 507 -3 1222 -7 1590 l-6 667 42 0 c42 0 43 0 24 -17z
m635 -1530 l2 -1543 88 0 87 0 -3 1540 -4 1540 37 0 c32 0 36 -2 25 -15 -9
-11 -9 -269 -1 -1172 6 -637 14 -1330 17 -1540 l6 -383 94 0 c93 0 94 0 94
-25 0 -13 6 -30 14 -37 11 -11 7 -15 -28 -23 -31 -8 -42 -15 -44 -32 l-3 -23
-262 0 c-183 1 -257 4 -244 11 32 19 20 52 -31 84 l-47 30 89 3 89 3 -7 402
c-3 221 -9 919 -12 1550 l-7 1148 -26 14 c-25 15 -25 15 24 12 l50 -2 3 -1542z
m148 1534 c1 -1 5 -692 9 -1535 l7 -1532 -69 0 -70 0 -6 1531 c-4 843 -4 1536
0 1542 4 7 123 2 129 -6z m718 -104 c3 -60 9 -773 12 -1585 l7 -1478 -62 0
-61 0 0 -40 c0 -36 -3 -40 -24 -40 -18 0 -26 6 -28 22 -2 15 -13 25 -36 32
-22 6 -31 14 -27 23 3 8 5 23 5 34 0 17 8 19 95 19 l95 0 0 408 c-1 224 -5
920 -10 1547 -8 1071 -10 1140 -26 1152 -16 12 -14 13 18 13 l36 0 6 -107z
m-1325 -3088 c60 -21 198 -21 262 0 46 15 53 16 66 2 14 -13 13 -17 -11 -32
-38 -25 -90 -34 -192 -35 -89 0 -187 20 -199 41 -7 10 12 39 24 39 3 0 26 -7
50 -15z"/>
</g>
</svg>
