<?xml version="1.0" encoding="utf-8"?>
<!-- Generator: Adobe Illustrator 21.0.0, SVG Export Plug-In . SVG Version: 6.00 Build 0)  -->
<svg version="1.1" xmlns="http://www.w3.org/2000/svg" xmlns:xlink="http://www.w3.org/1999/xlink" x="0px" y="0px"
	 viewBox="0 0 64 64" enable-background="new 0 0 64 64" xml:space="preserve">
<g id="Layer_1">
</g>
<g id="Layer_2">
	<g>
		<path fill="none" stroke="#000000" stroke-width="1.5" stroke-miterlimit="10" d="M54.5,42.648c0,6.548-5.31,11.852-11.86,11.852
			H21.36C14.81,54.5,9.5,49.196,9.5,42.648V21.352C9.5,14.805,14.81,9.5,21.36,9.5h21.28c6.55,0,11.86,5.305,11.86,11.852V42.648z"
			/>
		<ellipse cx="22.156" cy="32.015" rx="2.757" ry="2.755"/>
		<circle cx="41.941" cy="32.015" r="2.756"/>
		<polygon fill="none" stroke="#000000" stroke-width="1.5" stroke-miterlimit="10" points="30.321,15.564 30.317,12.196 
			33.744,12.265 33.744,15.554 		"/>
		<polygon fill="none" stroke="#000000" stroke-width="1.5" stroke-miterlimit="10" points="30.321,48.419 30.317,51.788 
			33.744,51.717 33.744,48.431 		"/>
		<path fill="none" stroke="#000000" stroke-width="1.5" stroke-miterlimit="10" d="M19.4,47.596
			c-4.571-3.681-7.496-9.322-7.496-15.645c0-11.091,8.997-20.082,20.096-20.082s20.096,8.991,20.096,20.082S43.099,52.033,32,52.033
			c-3.576,0-6.934-0.933-9.843-2.57"/>
		<path fill="none" stroke="#000000" stroke-width="1.5" stroke-miterlimit="10" d="M49.622,29.362h1.831
			c0.189,0,0.36-0.003,0.476-0.009c-0.371-2.872-1.35-5.554-2.803-7.913c-0.013,0.13-0.022,0.294-0.024,0.46l-0.075,6.861
			C49.024,29.092,49.291,29.362,49.622,29.362z"/>
		<path fill="none" stroke="#000000" stroke-width="1.5" stroke-miterlimit="10" d="M51.408,34.568h-1.831
			c-0.33,0-0.598,0.271-0.595,0.601l0.075,6.86c0.002,0.182,0.013,0.361,0.028,0.497c1.47-2.366,2.461-5.06,2.839-7.947
			C51.811,34.572,51.62,34.568,51.408,34.568z"/>
		<path fill="none" stroke="#000000" stroke-width="1.5" stroke-miterlimit="10" d="M14.621,34.568h-1.83
			c-0.331,0-0.613,0.011-0.626,0.024c-0.008,0.007-0.038,0.03-0.08,0.06c0.398,2.956,1.438,5.709,2.977,8.112
			c0.003-0.005,0.005-0.01,0.009-0.016c0.034-0.065,0.066-0.389,0.068-0.719l0.076-6.86C15.219,34.838,14.952,34.568,14.621,34.568z
			"/>
		<path fill="none" stroke="#000000" stroke-width="1.5" stroke-miterlimit="10" d="M12.12,29.339
			c0.013,0.013,0.295,0.023,0.626,0.023h1.83c0.33,0,0.598-0.269,0.595-0.6l-0.075-6.861c-0.003-0.321-0.033-0.633-0.066-0.71
			c-1.531,2.406-2.563,5.159-2.952,8.115C12.099,29.321,12.115,29.334,12.12,29.339z"/>
	</g>
</g>
</svg>
